<svg width="36" height="40" viewBox="0 0 36 40" fill="none" xmlns="http://www.w3.org/2000/svg">
<path d="M17.4691 1.4223C19.3907 1.39054 20.3798 2.20395 21.9736 3.06316C23.8941 4.09693 25.8042 5.14986 27.7037 6.22181L30.3875 7.71356C30.8539 7.9702 31.5755 8.3328 32.0026 8.6393C32.6298 9.0836 33.1551 9.65654 33.5434 10.3199C34.6186 12.1252 34.5938 14.5246 34.1606 16.5288C33.9563 17.4742 32.9112 19.1293 32.0729 19.6276C32.3652 19.886 32.6839 20.1649 32.9537 20.4257C34.1284 21.5611 34.8713 23.3869 34.8103 25.0199C34.7946 25.5612 34.8385 26.1394 34.7803 26.6779C34.5681 28.6427 33.6171 30.532 31.8414 31.5195C30.992 31.9918 30.0881 32.4193 29.2173 32.8682L24.8241 35.1552L21.8496 36.6957C21.1335 37.0709 20.2339 37.5623 19.4713 37.8454C18.4858 38.2113 16.3518 38.2598 15.3469 37.9638C14.1872 37.5486 12.5536 36.7376 11.6414 35.9051C10.2411 34.6271 10.2854 32.4685 10.2883 30.794L10.2921 27.7411L10.2967 16.1895C10.2961 15.917 10.3049 15.6363 10.3102 15.3632C10.7562 15.5569 13.1871 16.7819 13.3699 17.0937C13.4675 17.2602 13.4959 17.4911 13.5077 17.6815C13.5393 18.1941 13.5091 18.7216 13.507 19.2356L13.5181 21.5306L13.5227 29.0014C13.5208 30.0765 13.4626 31.2636 13.5724 32.3188C13.6517 33.0819 14.3426 33.93 14.9983 34.2863C15.6159 34.6639 16.1666 34.8738 16.8861 34.9397C18.2559 35.065 19.342 34.3441 20.5375 33.7244L23.819 32.0255L28.0306 29.8427C28.7781 29.4495 29.794 29.0178 30.4043 28.4565C31.9199 27.0627 32.0094 24.2514 30.6501 22.7185C29.4401 21.3538 28.2027 21.4693 26.5801 21.379C26.5533 20.2416 26.5699 19.0343 26.5754 17.8932C27.7863 17.8224 28.571 18.077 29.683 17.3671C30.4217 16.8943 30.9416 16.1466 31.1276 15.2894C31.3259 14.3895 31.2768 12.882 30.7499 12.087C30.5793 11.8294 30.1159 11.2701 29.8493 11.1077C29.2158 10.7216 28.5114 10.3523 27.856 10.0014C26.8302 9.45095 25.8076 8.89471 24.7881 8.3327L18.0404 4.61268L16.1509 3.55423C15.6687 3.28127 14.6333 2.63952 14.1546 2.53805C15.2147 1.8748 16.2194 1.46205 17.4691 1.4223Z" fill="#FCFCFC"></path>
<path d="M7.57146 6.23696C8.35073 6.09785 9.94155 6.39306 10.6433 6.69951C11.3501 7.00812 12.1968 7.51071 12.8793 7.89644C13.8126 8.42453 14.7497 8.94607 15.6903 9.46104L19.7516 11.7154L21.3196 12.5797C21.896 12.8946 22.7515 13.2713 23.0613 13.8691C23.1593 14.058 23.2182 14.2646 23.2344 14.4768C23.2841 15.1012 23.2645 15.8517 23.2634 16.4878L23.2631 19.5094L23.2664 23.2528C23.2673 24.2164 23.2922 25.1807 23.2258 26.1415C23.1725 26.911 22.5468 27.0905 21.9564 27.4176C21.2996 27.7866 20.6364 28.144 19.967 28.4897C19.9191 27.2329 19.9375 25.9295 19.9368 24.6674L19.9322 19.176C19.9332 18.1624 19.9413 17.1503 19.9303 16.1366C19.9217 15.3409 19.1966 15.1372 18.5952 14.8107L17.2037 14.0383L11.8238 11.0526L10.516 10.309C9.71226 9.85285 9.36341 9.58296 8.40276 9.52907C7.30378 9.45415 6.52166 9.68027 5.68803 10.4109C4.55136 11.4069 4.68622 12.8056 4.68573 14.1682L4.68661 17.1727L4.69174 27.3605C4.68886 28.7738 4.75847 30.6943 4.67592 32.0577C4.03439 31.8544 3.17803 31.252 2.63343 30.8712C2.05545 30.467 1.49903 29.4343 1.45502 28.7451C1.39662 27.8306 1.41872 26.6982 1.4217 25.754L1.42819 20.5167L1.42878 14.8875C1.42571 13.8116 1.34827 12.6291 1.49219 11.5555C1.80866 9.1948 3.50194 7.60468 5.58886 6.67775C6.13403 6.4356 6.98059 6.29522 7.57146 6.23696Z" fill="#FCFCFC"></path>
</svg>